<svg xmlns="http://www.w3.org/2000/svg" viewBox="0 0 1118.41 162.41"><title>Asset 1</title><g id="Layer_2" data-name="Layer 2"><g id="Layer_1-2" data-name="Layer 1"><path d="M866.3,3.54H980.73V29.72H897.66V71.47h72.25V97.21H897.66v34.61h82.42v26.4H866.3ZM0,2.87H31.36V71H92.15V2.87h31.36V157.54H92.15V97H31.36v60.57H0Zm189,.34h32.45L276,157.89H243.29L232.9,125H177.09l-10.17,32.88h-31.8ZM184.44,101h40.89L211.49,56.43c-2.6-8.22-6.28-23.79-6.28-23.79h-.43s-3.9,15.57-6.49,23.79ZM287.78,3.21h31.36v128.5h72.69v26.18h-104Zm118.67,0H517.2V29.82H437.81V67h67.28V93.86H437.81v64H406.45Zm144.41,0h32.45l54.52,154.68H605.16L594.77,125H539L528.8,157.89H497ZM546.32,101h40.89L573.36,56.43c-2.6-8.22-6.28-23.79-6.28-23.79h-.43s-3.89,15.57-6.48,23.79ZM995.76,3.21h71c29.85,0,49.76,17.31,49.76,43.06,0,18.17-8.44,32-28.34,37.42v.65c14.28,4.11,21.63,12.33,23.58,31.15,2.16,21.85,1.29,38.5,6.7,40.89v1.51h-30.06c-3.9-1.73-4.33-19-5.63-35.7-1.3-16.87-10.82-26.38-30.29-26.38h-25.31v62.08H995.76Zm31.36,68.36h33.32c17.08,0,25.52-8.87,25.52-21.19,0-12.55-8-21.85-24.66-21.85h-34.18ZM797.85,64.91c-22.4-7-32.84-11.61-31.73-24.11,1-11,12.6-17.12,29.41-15.62,15.94,1.42,27.32,10.25,27.66,25.92l1.29.11h28.64C852.36,21.5,831.68,3.42,798,.42,776.07-1.53,757.53,3.31,746.25,15,735.93,7.64,721.78,3,704,1.39c-34.68-3.09-61.45,12.12-64.23,43.37-3,33.18,22.23,43,53.29,52.74,22.4,7,32.84,11.61,31.73,24.11-1,11-12.6,17.12-29.41,15.63-15.94-1.42-27.32-10.26-27.66-25.92l-1.21-.11H637.8C638.56,140.92,659.24,159,693,162c21.88,1.95,40.42-2.89,51.7-14.53,10.32,7.31,24.47,12,42.23,13.56,34.69,3.09,61.46-12.12,64.24-43.36C854.1,84.48,828.91,74.63,797.85,64.91Z"/></g></g></svg>