<?xml version="1.0" encoding="utf-8"?>
<!-- Generator: Adobe Illustrator 23.0.1, SVG Export Plug-In . SVG Version: 6.00 Build 0)  -->
<svg version="1.1" xmlns="http://www.w3.org/2000/svg" xmlns:xlink="http://www.w3.org/1999/xlink" x="0px" y="0px"
	 viewBox="0 0 278.01 278.01" style="enable-background:new 0 0 278.01 278.01;" xml:space="preserve">
<style type="text/css">
	.st0{opacity:0.97;}
	.st1{clip-path:url(#SVGID_2_);}
	.st2{fill:#FFFFFF;}
	.st3{clip-path:url(#SVGID_4_);}
	.st4{clip-path:url(#SVGID_6_);}
	.st5{clip-path:url(#SVGID_8_);}
	.st6{clip-path:url(#SVGID_10_);}
</style>
<g id="Layer_1">
	<g>
		<circle class="st2" cx="139.01" cy="139.01" r="122.18"/>
		<path d="M138.95,278.01c-36.35,0-70.64-13.9-96.78-39.28c-26.64-25.87-41.61-60.56-42.16-97.68
			c-0.55-37.13,13.4-72.24,39.26-98.88S99.84,0.56,136.96,0.02c37.15-0.56,72.24,13.4,98.88,39.26
			c26.64,25.87,41.61,60.56,42.15,97.68c0.55,37.13-13.4,72.24-39.26,98.88s-60.56,41.61-97.68,42.15
			C140.35,278.01,139.65,278.01,138.95,278.01z M139.05,21.57c-0.59,0-1.18,0-1.78,0.01c-64.75,0.95-116.65,54.4-115.7,119.15
			c0.46,31.37,13.11,60.68,35.61,82.53c22.51,21.85,52.18,33.65,83.54,33.17c31.37-0.46,60.68-13.11,82.53-35.61
			s33.63-52.17,33.17-83.54c-0.46-31.37-13.11-60.68-35.61-82.53C198.74,33.31,169.76,21.57,139.05,21.57z M182.21,125.51
			c-18.53-5.78-27.17-9.61-26.25-19.95c0.81-9.09,10.42-14.17,24.33-12.93c13.19,1.17,22.6,8.48,22.88,21.44l1.07,0.1h23.7
			c-0.63-24.58-17.74-39.54-45.64-42.02c-18.1-1.61-33.45,2.39-42.78,12.02c-8.53-6.05-20.25-9.91-34.94-11.22
			c-28.7-2.56-50.85,10.03-53.15,35.88c-2.45,27.45,18.39,35.6,44.09,43.64c18.53,5.78,27.17,9.61,26.25,19.95
			c-0.81,9.09-10.42,14.17-24.33,12.93c-13.19-1.17-22.6-8.48-22.88-21.44l-1-0.09H49.79c0.63,24.58,17.74,39.53,45.64,42.02
			c18.1,1.61,33.45-2.39,42.78-12.02c8.53,6.05,20.25,9.91,34.94,11.22c28.7,2.56,50.85-10.03,53.15-35.88
			C228.75,141.7,207.91,133.55,182.21,125.51z"/>
	</g>
</g>
<g id="Layer_2">
</g>
</svg>
