<?xml version="1.0" encoding="utf-8"?>
<!-- Generator: Adobe Illustrator 23.0.1, SVG Export Plug-In . SVG Version: 6.00 Build 0)  -->
<svg version="1.1" id="Layer_1" xmlns="http://www.w3.org/2000/svg" xmlns:xlink="http://www.w3.org/1999/xlink" x="0px" y="0px"
	 viewBox="0 0 693.96 898.42" style="enable-background:new 0 0 693.96 898.42;" xml:space="preserve">
<g>
	<path d="M214.2,8.93v159.62h-33.75V8.93H214.2z"/>
	<path d="M267.43,99.34v69.21h-33.2V48.83h31.64v21.12h1.4c2.65-6.96,7.09-12.48,13.33-16.56s13.8-6.12,22.68-6.12
		c8.31,0,15.56,1.82,21.75,5.46c6.18,3.64,10.99,8.82,14.42,15.55c3.43,6.73,5.14,14.74,5.14,24.04v76.23h-33.2v-70.3
		c0.05-7.33-1.82-13.06-5.61-17.19c-3.79-4.13-9.02-6.2-15.67-6.2c-6.7,0-12.15,2.14-16.33,6.43
		C269.6,85.58,267.48,91.6,267.43,99.34z"/>
	<path d="M460.89,82.97l-30.4,1.87c-0.52-2.6-1.64-4.95-3.35-7.05c-1.71-2.1-3.97-3.79-6.78-5.07c-2.81-1.27-6.11-1.91-9.9-1.91
		c-5.14,0-9.48,1.08-13.02,3.23c-3.53,2.16-5.3,5.03-5.3,8.61c0,2.86,1.14,5.27,3.43,7.25c2.29,1.98,6.21,3.56,11.77,4.75
		l21.67,4.36c22.97,4.68,34.5,15.48,34.61,32.42c0,7.9-2.3,14.8-6.9,20.69c-4.6,5.9-10.89,10.5-18.86,13.8
		c-7.98,3.3-17.16,4.95-27.55,4.95c-15.85,0-28.46-3.31-37.84-9.94c-9.38-6.62-14.88-15.65-16.48-27.08l32.66-1.71
		c0.99,4.83,3.38,8.51,7.17,11.03s8.65,3.78,14.58,3.78c5.82,0,10.51-1.13,14.07-3.39s5.36-5.18,5.42-8.77
		c-0.05-3.01-1.33-5.5-3.82-7.44c-2.49-1.95-6.34-3.44-11.54-4.48l-20.73-4.13c-11.69-2.34-20.38-6.39-26.07-12.16
		c-5.69-5.77-8.54-13.12-8.54-22.06c0-7.69,2.09-14.31,6.27-19.88c4.18-5.56,10.08-9.85,17.69-12.86
		c7.61-3.01,16.54-4.52,26.77-4.52c15.12,0,27.03,3.2,35.74,9.59C454.36,63.25,459.44,71.96,460.89,82.97z"/>
	<path d="M539.9,48.83v24.94h-72.1V48.83H539.9z M484.17,20.15h33.2v111.3c-0.1,3.07,0.32,5.44,1.29,7.13
		c0.96,1.69,2.3,2.87,4.01,3.55c1.71,0.68,3.69,1.01,5.92,1.01c1.56,0,3.12-0.13,4.68-0.39s2.75-0.49,3.58-0.7l5.22,24.79
		c-1.66,0.52-4,1.13-7.01,1.83s-6.68,1.13-10.99,1.29c-8,0.31-15-0.75-21.01-3.2c-6-2.44-10.67-6.25-13.99-11.42
		c-3.33-5.17-4.96-11.65-4.91-19.45V20.15H484.17z"/>
	<path d="M568.52,34.65c-4.78,0-8.96-1.61-12.55-4.83c-3.58-3.22-5.38-7.22-5.38-12c0-4.73,1.79-8.7,5.38-11.93
		c3.58-3.22,7.77-4.83,12.55-4.83c4.78,0,8.96,1.61,12.55,4.83c3.58,3.22,5.38,7.2,5.38,11.93c0,4.78-1.79,8.78-5.38,12
		S573.3,34.65,568.52,34.65z M551.84,168.55V48.83h33.2v119.72H551.84z"/>
	<path d="M680.95,88.9v24.32h-80.12V88.9H680.95z"/>
	<path d="M366.34,218.83v24.94h-72.1v-24.94H366.34z M310.61,190.15h33.2v111.3c-0.1,3.07,0.32,5.44,1.29,7.13
		c0.96,1.69,2.3,2.87,4.01,3.55c1.71,0.68,3.69,1.01,5.92,1.01c1.56,0,3.12-0.13,4.68-0.39s2.75-0.49,3.58-0.7l5.22,24.79
		c-1.66,0.52-4,1.13-7.01,1.83c-3.01,0.7-6.68,1.13-10.99,1.29c-8,0.31-15-0.75-21.01-3.2c-6-2.44-10.67-6.25-13.99-11.42
		c-3.33-5.17-4.96-11.65-4.91-19.45L310.61,190.15L310.61,190.15z"/>
	<path d="M453.82,287.58v-68.74h33.2v119.72h-31.88v-21.75h-1.25c-2.7,7.02-7.18,12.65-13.45,16.91
		c-6.26,4.26-13.89,6.39-22.88,6.39c-8,0-15.04-1.82-21.12-5.46c-6.08-3.64-10.83-8.81-14.26-15.51c-3.43-6.7-5.14-14.73-5.14-24.08
		v-76.23h33.2v70.3c0.05,7.07,1.95,12.65,5.69,16.76c3.74,4.11,8.75,6.16,15.04,6.16c4,0,7.74-0.92,11.22-2.77
		c3.48-1.84,6.3-4.59,8.46-8.22C452.82,297.43,453.87,292.93,453.82,287.58z"/>
	<path d="M568.82,218.83v24.94h-72.1v-24.94H568.82z M513.09,190.15h33.2v111.3c-0.1,3.07,0.32,5.44,1.29,7.13
		c0.96,1.69,2.3,2.87,4.01,3.55s3.69,1.01,5.92,1.01c1.56,0,3.12-0.13,4.68-0.39s2.75-0.49,3.58-0.7l5.22,24.79
		c-1.66,0.52-4,1.13-7.01,1.83c-3.01,0.7-6.68,1.13-10.99,1.29c-8,0.31-15-0.75-21.01-3.2c-6-2.44-10.67-6.25-13.99-11.42
		c-3.33-5.17-4.96-11.65-4.91-19.45V190.15H513.09z"/>
	<path d="M630.6,340.89c-12.32,0-22.9-2.51-31.76-7.52c-8.86-5.01-15.68-12.12-20.46-21.32s-7.17-20.13-7.17-32.81
		c0-12.31,2.39-23.12,7.17-32.42c4.78-9.3,11.52-16.55,20.23-21.75c8.7-5.2,18.93-7.79,30.67-7.79c7.9,0,15.26,1.26,22.1,3.78
		c6.83,2.52,12.81,6.3,17.93,11.34s9.11,11.37,11.96,18.98c2.86,7.61,4.29,16.51,4.29,26.7v9.12H584.45v-20.58h69.83
		c-0.05-7.17-2.34-13.06-6.86-17.65s-10.39-6.9-17.62-6.9c-5.04,0-9.5,1.16-13.37,3.47s-6.9,5.42-9.08,9.31
		c-2.18,3.9-3.3,8.18-3.35,12.86v19.56c0,8.94,2.44,15.98,7.33,21.12c4.88,5.14,11.48,7.72,19.8,7.72c5.51,0,10.3-1.18,14.38-3.55
		c4.08-2.36,6.95-5.81,8.61-10.33l30.71,2.03c-2.34,11.12-8.26,20.01-17.77,26.66C657.56,337.57,645.4,340.89,630.6,340.89z"/>
	<path d="M62.19,510.89c-12.11,0-22.56-2.58-31.37-7.75s-15.6-12.39-20.38-21.67c-4.78-9.27-7.17-20.04-7.17-32.31
		c0-12.37,2.39-23.19,7.17-32.46s11.58-16.5,20.38-21.67c8.81-5.17,19.26-7.76,31.37-7.76s22.56,2.59,31.37,7.76
		s15.6,12.39,20.38,21.67s7.17,20.1,7.17,32.46c0,12.26-2.39,23.03-7.17,32.31s-11.57,16.5-20.38,21.67
		C84.75,508.31,74.29,510.89,62.19,510.89z M62.34,485.17c5.51,0,10.11-1.57,13.8-4.71c3.69-3.14,6.48-7.44,8.38-12.9
		c1.9-5.46,2.84-11.67,2.84-18.63c0-6.91-0.95-13.11-2.84-18.59c-1.9-5.48-4.69-9.81-8.38-12.98c-3.69-3.17-8.29-4.75-13.8-4.75
		c-5.56,0-10.22,1.59-13.99,4.75c-3.77,3.17-6.6,7.5-8.5,12.98S37,442.02,37,448.93c0,6.96,0.95,13.17,2.85,18.63
		c1.9,5.46,4.73,9.76,8.5,12.9S56.78,485.17,62.34,485.17z"/>
	<path d="M196.88,388.83v24.94h-73.89v-24.94H196.88z M139.9,508.55V380.18c0-8.68,1.7-15.87,5.1-21.59
		c3.4-5.71,8.07-10,13.99-12.86s12.65-4.29,20.19-4.29c5.09,0,9.75,0.39,13.99,1.17c4.23,0.78,7.39,1.48,9.47,2.1l-5.85,24.94
		c-1.3-0.42-2.91-0.81-4.83-1.17c-1.92-0.36-3.87-0.55-5.85-0.55c-4.88,0-8.28,1.13-10.17,3.39c-1.9,2.26-2.84,5.42-2.84,9.47
		v127.75L139.9,508.55L139.9,508.55z"/>
	<path d="M275.24,508.55V348.93h33.75v65.86h68.51v-65.86h33.67v159.62H377.5v-65.94h-68.51v65.94H275.24z"/>
	<path d="M464.83,510.81c-7.64,0-14.45-1.34-20.42-4.01c-5.98-2.68-10.69-6.65-14.15-11.92c-3.46-5.27-5.18-11.86-5.18-19.76
		c0-6.65,1.22-12.24,3.66-16.76c2.44-4.52,5.77-8.16,9.98-10.91c4.21-2.75,9-4.83,14.38-6.24c5.38-1.4,11.03-2.39,16.95-2.96
		c6.96-0.67,12.57-1.36,16.84-2.07c4.26-0.7,7.37-1.73,9.31-3.08c1.95-1.35,2.9-3.33,2.84-5.92c0-5.04-1.53-8.91-4.6-11.61
		c-3.07-2.7-7.46-4.05-13.17-4.05c-5.98,0-10.73,1.31-14.26,3.94c-3.53,2.62-5.87,5.91-7.02,9.86l-30.71-2.49
		c1.51-7.27,4.55-13.57,9.12-18.9s10.52-9.43,17.85-12.31c7.33-2.88,15.9-4.33,25.72-4.33c6.44,0,12.68,0.78,18.71,2.34
		s11.41,3.97,16.13,7.25s8.48,7.47,11.26,12.59s4.17,11.24,4.17,18.36v80.75h-31.49v-16.6h-0.94c-1.92,3.74-4.5,7.03-7.72,9.86
		s-7.09,5.04-11.61,6.62C475.98,510.02,470.76,510.81,464.83,510.81z M474.34,487.9c4.88,0,9.2-0.97,12.94-2.92s6.68-4.58,8.81-7.91
		c2.13-3.33,3.2-7.09,3.2-11.3v-12.7c-1.04,0.68-2.46,1.29-4.25,1.83c-1.79,0.55-3.81,1.04-6.04,1.48c-2.24,0.44-4.47,0.83-6.7,1.17
		c-2.24,0.34-4.26,0.64-6.08,0.9c-3.9,0.57-7.3,1.48-10.21,2.73s-5.17,2.92-6.78,5.03c-1.61,2.1-2.42,4.72-2.42,7.83
		c0,4.52,1.65,7.96,4.95,10.33C465.05,486.72,469.25,487.9,474.34,487.9z"/>
	<path d="M583.66,348.93v159.62h-33.2V348.93H583.66z"/>
	<path d="M680.95,428.9v24.32h-80.12V428.9H680.95z"/>
	<path d="M129,558.83v24.94H55.11v-24.94H129z M72.03,678.55V550.18c0-8.68,1.7-15.87,5.1-21.59c3.4-5.71,8.07-10,13.99-12.86
		s12.65-4.29,20.19-4.29c5.09,0,9.75,0.39,13.99,1.17c4.23,0.78,7.39,1.48,9.47,2.1l-5.85,24.94c-1.3-0.42-2.91-0.81-4.83-1.17
		s-3.87-0.55-5.85-0.55c-4.88,0-8.28,1.13-10.17,3.39c-1.9,2.26-2.84,5.42-2.84,9.47v127.75h-33.2V678.55z"/>
	<path d="M172.76,680.81c-7.64,0-14.45-1.34-20.42-4.01c-5.98-2.68-10.69-6.65-14.15-11.92c-3.46-5.27-5.18-11.86-5.18-19.76
		c0-6.65,1.22-12.24,3.66-16.76s5.77-8.16,9.98-10.91c4.21-2.75,9-4.83,14.38-6.24c5.38-1.4,11.03-2.39,16.95-2.96
		c6.96-0.67,12.57-1.36,16.84-2.07c4.26-0.7,7.37-1.73,9.31-3.08c1.95-1.35,2.9-3.33,2.84-5.92c0-5.04-1.53-8.91-4.6-11.61
		s-7.46-4.05-13.17-4.05c-5.98,0-10.73,1.31-14.26,3.94c-3.53,2.62-5.87,5.91-7.02,9.86l-30.71-2.49c1.51-7.27,4.55-13.57,9.12-18.9
		c4.57-5.33,10.52-9.43,17.85-12.31s15.9-4.33,25.72-4.33c6.44,0,12.68,0.78,18.71,2.34s11.41,3.97,16.13,7.25
		s8.48,7.47,11.26,12.59c2.78,5.12,4.17,11.24,4.17,18.36v80.75h-31.49v-16.6h-0.94c-1.92,3.74-4.5,7.03-7.72,9.86
		c-3.22,2.83-7.09,5.04-11.61,6.62C183.91,680.02,178.68,680.81,172.76,680.81z M182.27,657.9c4.88,0,9.2-0.97,12.94-2.92
		s6.68-4.58,8.81-7.91c2.13-3.33,3.2-7.09,3.2-11.3v-12.7c-1.04,0.68-2.46,1.29-4.25,1.83c-1.79,0.55-3.81,1.04-6.04,1.48
		c-2.24,0.44-4.47,0.83-6.7,1.17c-2.24,0.34-4.26,0.64-6.08,0.9c-3.9,0.57-7.3,1.48-10.21,2.73s-5.17,2.92-6.78,5.03
		c-1.61,2.1-2.42,4.72-2.42,7.83c0,4.52,1.65,7.96,4.95,10.33C172.98,656.72,177.18,657.9,182.27,657.9z"/>
	<path d="M541.52,680.89c-12.32,0-22.9-2.51-31.76-7.52s-15.68-12.12-20.46-21.32s-7.17-20.13-7.17-32.81
		c0-12.31,2.39-23.12,7.17-32.42s11.52-16.55,20.23-21.75c8.7-5.2,18.93-7.79,30.67-7.79c7.9,0,15.26,1.26,22.1,3.78
		c6.83,2.52,12.81,6.3,17.93,11.34c5.12,5.04,9.11,11.37,11.96,18.98c2.86,7.61,4.29,16.51,4.29,26.7v9.12h-101.1v-20.58h69.83
		c-0.05-7.17-2.34-13.05-6.86-17.65s-10.39-6.9-17.62-6.9c-5.04,0-9.5,1.16-13.37,3.47s-6.9,5.42-9.08,9.31
		c-2.18,3.9-3.3,8.18-3.35,12.86v19.56c0,8.94,2.44,15.98,7.33,21.12c4.88,5.14,11.48,7.72,19.8,7.72c5.51,0,10.3-1.18,14.38-3.55
		c4.08-2.36,6.95-5.81,8.61-10.33l30.71,2.03c-2.34,11.12-8.26,20-17.77,26.66C568.49,677.57,556.33,680.89,541.52,680.89z"/>
	<path d="M610.7,678.55V558.83h32.19v20.89h1.25c2.18-7.43,5.85-13.05,10.99-16.87s11.07-5.73,17.77-5.73
		c3.22,0,6.21,0.39,8.96,1.17c2.75,0.78,5.22,1.84,7.4,3.2l-9.98,27.44c-1.56-0.78-3.26-1.44-5.11-1.99
		c-1.84-0.55-3.91-0.82-6.2-0.82c-4.47,0-8.52,1.05-12.16,3.16c-3.64,2.1-6.53,5-8.69,8.69s-3.23,7.98-3.23,12.86v67.73H610.7
		V678.55z"/>
	<path d="M597.94,895.16c-4.68,0-8.7-0.42-12.08-1.25s-6-1.64-7.87-2.42l7.48-25.72c3.9,1.2,7.38,1.83,10.44,1.91
		c3.07,0.08,5.75-0.66,8.07-2.22c2.31-1.56,4.27-4.13,5.88-7.72l2.34-5.61l-43.1-123.3h34.92l24.79,87.92h1.25l25.02-87.92h35.15
		l-46.76,133.44c-2.29,6.39-5.44,12.05-9.47,16.99c-4.03,4.94-9.02,8.82-14.96,11.65C613.07,893.75,606.04,895.16,597.94,895.16z"/>
</g>
</svg>
